<svg width="130" height="130" viewBox="0 0 130 130" fill="none" xmlns="http://www.w3.org/2000/svg">
<circle cx="65" cy="65" r="65" fill="#F65353"/>
<path d="M53.5001 64.9997C49.9334 62.6331 46.0001 60.7664 41.7334 59.6331C46.0001 60.7664 49.9334 62.6331 53.5001 64.9997ZM88.2667 59.6331C83.9667 60.7664 79.9667 62.6664 76.3667 65.0997C79.9667 62.6664 83.9667 60.7664 88.2667 59.6331Z" fill="#607D8B"/>
<path d="M76.6332 57.1001C76.0332 47.8001 72.2665 38.7334 65.1998 31.6667C58.0665 38.8001 54.1332 47.8667 53.3665 57.1001C57.6332 59.3668 61.5665 62.3001 64.9998 65.8667C68.4332 62.3334 72.3665 59.4001 76.6332 57.1001ZM54.9665 65.9334C54.4998 65.6001 53.9665 65.3001 53.4665 64.9667C53.9665 65.3334 54.4998 65.6001 54.9665 65.9334ZM76.3665 65.1001C75.9332 65.4001 75.4665 65.6334 75.0332 65.9668C75.4665 65.6334 75.9332 65.4001 76.3665 65.1001ZM64.9998 76.5001C57.8332 65.5667 45.5998 58.3334 31.6665 58.3334C31.6665 76.0667 42.8665 91.0667 58.4332 96.6334C60.5332 97.4001 62.7332 97.9668 64.9998 98.3334C67.2665 97.9334 69.4332 97.3668 71.5665 96.6334C87.1332 91.0667 98.3332 76.0667 98.3332 58.3334C84.3998 58.3334 72.1665 65.5667 64.9998 76.5001Z" fill="white"/>
</svg>
