<svg width="578" height="606" viewBox="0 0 578 606" fill="none" xmlns="http://www.w3.org/2000/svg">
<g filter="url(#filter0_d)">
<circle cx="185" cy="245" r="180" fill="#F65353"/>
<path d="M185 78C95.1153 78 22.0001 152.461 22.0001 244C21.9744 267.432 26.8463 290.601 36.292 311.967C61.8373 369.708 118.874 410 185 410C228.223 409.976 269.669 392.479 300.232 361.353C330.795 330.227 347.976 288.018 348 244C348 152.461 274.872 78 185 78ZM319.86 310.732C307.551 336.494 288.381 358.216 264.537 373.419C240.692 388.623 213.132 396.697 185 396.72C121.456 396.72 67.0142 356.256 45.2243 299.298C38.4712 281.674 35.017 262.918 35.0401 244C35.0401 159.791 102.313 91.28 185 91.28C267.687 91.28 334.96 159.791 334.96 244C334.988 267.126 329.823 289.951 319.86 310.732Z" fill="white"/>
<path d="M148.305 259.886C152.755 259.857 157.077 261.397 160.533 264.243C163.989 267.09 166.366 271.066 167.256 275.493C168.147 279.921 167.496 284.525 165.416 288.52C163.336 292.515 159.955 295.652 155.85 297.397C151.745 299.142 147.171 299.387 142.909 298.088C138.647 296.79 134.96 294.03 132.479 290.279C129.998 286.527 128.876 282.018 129.304 277.52C129.732 273.022 131.685 268.815 134.828 265.616C136.59 263.803 138.688 262.363 141.001 261.38C143.315 260.396 145.797 259.889 148.305 259.886ZM148.305 251.574C142.908 251.571 137.63 253.193 133.141 256.236C128.651 259.279 125.151 263.605 123.083 268.668C121.015 273.73 120.471 279.302 121.522 284.679C122.572 290.055 125.168 294.995 128.983 298.872C132.797 302.75 137.659 305.392 142.952 306.465C148.245 307.537 153.733 306.991 158.721 304.896C163.708 302.801 167.972 299.252 170.973 294.696C173.975 290.14 175.578 284.783 175.581 279.302C175.585 271.952 172.713 264.901 167.598 259.701C162.483 254.501 155.543 251.578 148.305 251.574H148.305ZM205.166 211.941C207.635 211.954 210.007 210.97 211.762 209.206C213.516 207.443 214.509 205.044 214.521 202.537C214.521 202.505 214.521 202.473 214.521 202.441C214.533 201.213 214.306 199.995 213.854 198.856C213.402 197.717 212.733 196.679 211.886 195.802C211.039 194.926 210.031 194.227 208.918 193.746C207.805 193.266 206.61 193.012 205.4 193C205.342 193 205.283 193 205.225 193C202.751 192.977 200.37 193.952 198.605 195.711C196.839 197.47 195.834 199.87 195.811 202.381C195.788 204.893 196.748 207.311 198.48 209.104C200.213 210.896 202.576 211.917 205.049 211.941C205.088 211.941 205.127 211.941 205.166 211.941ZM224.724 259.886C229.174 259.857 233.496 261.397 236.952 264.243C240.408 267.09 242.785 271.066 243.675 275.493C244.566 279.921 243.915 284.525 241.835 288.52C239.755 292.515 236.374 295.652 232.269 297.397C228.164 299.142 223.591 299.387 219.328 298.088C215.066 296.79 211.379 294.03 208.898 290.279C206.417 286.527 205.295 282.018 205.723 277.52C206.151 273.022 208.104 268.815 211.247 265.616C213.009 263.803 215.107 262.363 217.42 261.38C219.734 260.396 222.216 259.889 224.724 259.886ZM224.724 251.574C219.33 251.574 214.056 253.198 209.571 256.242C205.085 259.285 201.589 263.611 199.525 268.672C197.46 273.734 196.92 279.303 197.972 284.676C199.025 290.049 201.623 294.984 205.437 298.858C209.252 302.731 214.112 305.369 219.403 306.438C224.694 307.507 230.178 306.958 235.162 304.862C240.146 302.766 244.406 299.215 247.403 294.66C250.4 290.105 252 284.75 252 279.272C252 275.635 251.294 272.033 249.924 268.672C248.553 265.312 246.544 262.258 244.011 259.686C241.478 257.114 238.471 255.074 235.162 253.682C231.853 252.29 228.306 251.574 224.724 251.574Z" fill="white"/>
<path d="M219.35 230.619H205.423L196.864 212.732C196.173 211.478 195.208 210.405 194.045 209.598C192.882 208.791 191.552 208.272 190.16 208.082C188.768 207.891 187.352 208.035 186.023 208.501C184.694 208.967 183.489 209.743 182.502 210.768L161.698 231.333C159.996 233.116 159.029 235.504 159 238C159 243.179 162.656 245.024 164.368 246.066C177.569 253.863 182.212 254.726 182.212 258.625V278.238C182.212 279.501 182.701 280.712 183.571 281.605C184.442 282.498 185.623 283 186.854 283C188.085 283 189.266 282.498 190.137 281.605C191.007 280.712 191.496 279.501 191.496 278.238V251.452C191.496 247.524 182.676 244.31 177.482 240.143L191.67 224.816C197.096 233.298 199.591 240.143 202.696 240.143H219.35C220.581 240.145 221.763 239.645 222.635 238.754C223.507 237.862 223.998 236.652 224 235.389C224.002 234.126 223.515 232.914 222.646 232.019C221.776 231.125 220.596 230.621 219.365 230.619H219.35V230.619Z" fill="white"/>
</g>
<g filter="url(#filter1_d)">
<circle cx="443" cy="471" r="110" fill="#F65353"/>
<path d="M489.852 439C485.815 439 482.474 450.718 481.826 466.083H404.174C403.526 450.718 400.185 439 396.148 439C391.648 439 388 453.551 388 471.5C388 489.449 391.648 504 396.148 504C400.185 504 403.526 492.282 404.174 476.917H481.826C482.474 492.282 485.815 504 489.852 504C494.352 504 498 489.449 498 471.5C498 453.551 494.352 439 489.852 439Z" fill="white"/>
<path d="M526.771 423.482C515.333 402.983 496.816 387.355 474.687 379.526C452.557 371.696 428.332 372.202 406.548 380.947C384.764 389.693 366.914 406.079 356.342 427.037C345.769 447.995 343.199 472.089 349.111 494.806C355.024 517.523 369.014 537.306 388.462 550.451C407.911 563.596 431.484 569.201 454.767 566.217C478.051 563.233 499.448 551.864 514.953 534.24C530.458 516.615 539.007 493.943 539 470.469C538.995 454.021 534.785 437.846 526.771 423.482ZM442.47 559.269C419.073 559.149 396.68 549.755 380.2 533.148C363.72 516.541 354.499 494.076 354.559 470.679C354.62 447.283 363.957 424.866 380.523 408.344C397.088 391.822 419.53 382.545 442.927 382.546C466.323 382.548 488.764 391.828 505.328 408.352C521.891 424.876 531.225 447.294 531.283 470.691C531.34 494.087 522.116 516.551 505.634 533.156C489.152 549.762 466.757 559.152 443.361 559.269C443.064 559.27 442.767 559.27 442.47 559.269Z" fill="white"/>
</g>
<g filter="url(#filter2_d)">
<circle cx="405" cy="77" r="72" fill="#F65353"/>
<path d="M405.013 14C396.74 13.9964 388.548 15.6229 380.904 18.7866C373.26 21.9503 366.313 26.5892 360.462 32.4384C354.61 38.2877 349.968 45.2326 346.8 52.8766C343.633 60.5206 342.002 68.7139 342 76.9886C341.998 85.2632 343.627 93.4571 346.792 101.102C349.957 108.747 354.596 115.694 360.446 121.545C366.295 127.397 373.24 132.038 380.883 135.205C388.526 138.371 396.717 140.001 404.99 140H405.013C405.421 140 405.821 140 406.23 139.983C422.826 139.663 438.625 132.803 450.192 120.895C461.758 108.986 468.157 92.9914 467.997 76.3889C467.837 59.7864 461.13 43.9185 449.336 32.2354C437.541 20.5524 421.613 13.9989 405.013 14V14ZM417.85 133.516C409.9 135.322 401.658 135.429 393.664 133.832C385.669 132.234 378.101 128.966 371.456 124.243C364.81 119.52 359.235 113.447 355.096 106.422C350.957 99.3967 348.347 91.5767 347.435 83.4733C346.524 75.3699 347.333 67.1654 349.809 59.3959C352.285 51.6265 356.371 44.467 361.803 38.3854C367.234 32.3038 373.887 27.4369 381.327 24.1029C388.767 20.7689 396.826 19.0428 404.979 19.0373H405.013C419.264 19.0364 433.015 24.2879 443.638 33.7882C454.262 43.2885 461.013 56.3713 462.601 70.5362C464.19 84.7011 460.504 98.9548 452.248 110.573C443.993 122.191 431.747 130.359 417.85 133.516Z" fill="white"/>
<path d="M436.7 74.5639C435.009 74.4802 433.336 74.9451 431.938 75.8877C430.539 76.8304 429.491 78.199 428.954 79.7847H422.703L418.139 66.2327C417.969 65.7249 417.642 65.2828 417.203 64.9694C416.765 64.656 416.237 64.4872 415.696 64.4872H415.648C415.098 64.4955 414.567 64.6794 414.132 65.0112C413.697 65.3431 413.383 65.8051 413.237 66.328L406.086 90.9721L397.681 41.1284C397.583 40.5515 397.288 40.0253 396.844 39.6381C396.4 39.2509 395.834 39.0264 395.243 39.0022C394.651 38.978 394.068 39.1556 393.594 39.5052C393.119 39.8548 392.78 40.3552 392.635 40.9222L384.117 79.7846H374.571C373.889 79.7846 373.235 80.0521 372.753 80.5283C372.271 81.0044 372 81.6502 372 82.3236C372 82.997 372.271 83.6428 372.753 84.119C373.235 84.5951 373.889 84.8626 374.571 84.8626H386.142C386.715 84.8634 387.271 84.6748 387.723 84.3267C388.174 83.9787 388.495 83.4914 388.633 82.9425L394.643 54.0297L402.888 102.889C402.982 103.459 403.271 103.979 403.707 104.363C404.143 104.747 404.699 104.972 405.282 105H405.427C405.986 104.999 406.529 104.819 406.975 104.487C407.422 104.155 407.747 103.689 407.902 103.159L415.889 75.6111L418.412 83.1171C418.584 83.6232 418.912 84.0636 419.35 84.3765C419.788 84.6895 420.314 84.8595 420.854 84.8626H429.066C429.557 86.1466 430.391 87.2758 431.478 88.1308C432.565 88.9858 433.866 89.535 435.243 89.7202C436.62 89.9055 438.023 89.7199 439.302 89.1832C440.581 88.6465 441.69 87.7785 442.511 86.671C443.331 85.5635 443.834 84.2575 443.965 82.8912C444.097 81.5249 443.852 80.149 443.257 78.9087C442.661 77.6685 441.738 76.6101 440.584 75.8453C439.43 75.0805 438.088 74.6378 436.7 74.5639H436.7Z" fill="white"/>
</g>
<defs>
<filter id="filter0_d" x="0" y="60" width="390" height="390" filterUnits="userSpaceOnUse" color-interpolation-filters="sRGB">
<feFlood flood-opacity="0" result="BackgroundImageFix"/>
<feColorMatrix in="SourceAlpha" type="matrix" values="0 0 0 0 0 0 0 0 0 0 0 0 0 0 0 0 0 0 127 0"/>
<feOffset dx="10" dy="10"/>
<feGaussianBlur stdDeviation="7.5"/>
<feColorMatrix type="matrix" values="0 0 0 0 0 0 0 0 0 0 0 0 0 0 0 0 0 0 0.25 0"/>
<feBlend mode="normal" in2="BackgroundImageFix" result="effect1_dropShadow"/>
<feBlend mode="normal" in="SourceGraphic" in2="effect1_dropShadow" result="shape"/>
</filter>
<filter id="filter1_d" x="328" y="356" width="250" height="250" filterUnits="userSpaceOnUse" color-interpolation-filters="sRGB">
<feFlood flood-opacity="0" result="BackgroundImageFix"/>
<feColorMatrix in="SourceAlpha" type="matrix" values="0 0 0 0 0 0 0 0 0 0 0 0 0 0 0 0 0 0 127 0"/>
<feOffset dx="10" dy="10"/>
<feGaussianBlur stdDeviation="7.5"/>
<feColorMatrix type="matrix" values="0 0 0 0 0 0 0 0 0 0 0 0 0 0 0 0 0 0 0.25 0"/>
<feBlend mode="normal" in2="BackgroundImageFix" result="effect1_dropShadow"/>
<feBlend mode="normal" in="SourceGraphic" in2="effect1_dropShadow" result="shape"/>
</filter>
<filter id="filter2_d" x="328" y="0" width="174" height="174" filterUnits="userSpaceOnUse" color-interpolation-filters="sRGB">
<feFlood flood-opacity="0" result="BackgroundImageFix"/>
<feColorMatrix in="SourceAlpha" type="matrix" values="0 0 0 0 0 0 0 0 0 0 0 0 0 0 0 0 0 0 127 0"/>
<feOffset dx="10" dy="10"/>
<feGaussianBlur stdDeviation="7.5"/>
<feColorMatrix type="matrix" values="0 0 0 0 0 0 0 0 0 0 0 0 0 0 0 0 0 0 0.25 0"/>
<feBlend mode="normal" in2="BackgroundImageFix" result="effect1_dropShadow"/>
<feBlend mode="normal" in="SourceGraphic" in2="effect1_dropShadow" result="shape"/>
</filter>
</defs>
</svg>
